<?xml version="1.0" encoding="UTF-8"?>
<svg id="Capa_2" data-name="Capa 2" xmlns="http://www.w3.org/2000/svg" viewBox="0 0 322.9 255.6">
  <defs>
    <style>
      .cls-1 {
        stroke-dasharray: 0 0 8 8;
      }

      .cls-1, .cls-2 {
        fill: none;
        stroke: #000;
        stroke-width: 2px;
      }

      .cls-3 {
        fill: #dae1e7;
        stroke-width: 0px;
      }
    </style>
  </defs>
  <g id="Capa_1-2" data-name="Capa 1">
    <path class="cls-2" d="M289.45,222.63v-56"/>
    <path class="cls-3" d="M289.45,94.63l-128-32v64l128-32Z"/>
    <path class="cls-2" d="M161.45,254.63V126.63M161.45,254.63l-128-32v-56M161.45,254.63l128-32M161.45,126.63L33.45,94.63M161.45,126.63l-32,64c-50.09-12.51-77.91-19.49-128-32l32-64M161.45,126.63l32,64,128-32-32-64M161.45,126.63l128-32M161.45,126.63V62.63M33.45,94.63l128-32M161.45,62.63l128,32"/>
    <path class="cls-2" d="M214.17,20.21c-.38,1.03-1.62,1.89-3.81,2.17-2.14.28-4.9-.05-7.77-1.1-2.86-1.05-5.18-2.59-6.63-4.19-1.49-1.64-1.88-3.1-1.5-4.13.38-1.03,1.62-1.89,3.81-2.17,2.14-.28,4.9.05,7.77,1.1,2.86,1.05,5.18,2.59,6.63,4.19,1.49,1.64,1.88,3.1,1.5,4.13Z"/>
    <path class="cls-2" d="M207.48,5.94c.03,1.49-.35,2.8-.93,3.71-.59.92-1.3,1.34-1.97,1.35-.67.01-1.4-.38-2.02-1.27-.62-.89-1.05-2.18-1.07-3.67-.03-1.49.35-2.8.93-3.71.59-.92,1.3-1.34,1.97-1.35.67-.01,1.4.38,2.02,1.27.62.89,1.05,2.18,1.07,3.67Z"/>
    <path class="cls-2" d="M213.79,9.61c-.76,1.28-1.77,2.19-2.75,2.66-.98.47-1.81.45-2.39.11-.57-.34-.99-1.06-1.04-2.15-.06-1.08.26-2.4,1.02-3.68.76-1.28,1.77-2.19,2.75-2.66.98-.47,1.81-.45,2.39-.11.57.34.99,1.06,1.05,2.15.06,1.08-.26,2.4-1.02,3.68Z"/>
    <path class="cls-1" d="M151.7,120.63c-22.25-37.5,30.29-58.4,56.75-63,28.48-5.24,41-31.5,8.5-37.5"/>
  </g>
</svg>